<?xml version="1.0" standalone="no"?>
<!DOCTYPE svg PUBLIC "-//W3C//DTD SVG 20010904//EN"
 "http://www.w3.org/TR/2001/REC-SVG-20010904/DTD/svg10.dtd">
<svg version="1.0" xmlns="http://www.w3.org/2000/svg"
 width="400.000000pt" height="400.000000pt" viewBox="0 0 400.000000 400.000000"
 preserveAspectRatio="xMidYMid meet">

<g transform="translate(0.000000,400.000000) scale(0.100000,-0.100000)"
fill="#000000" stroke="none">
<path d="M1970 3865 c-8 -2 -49 -9 -90 -15 -219 -35 -488 -160 -730 -338 -98
-73 -278 -249 -345 -337 -48 -64 -112 -181 -104 -190 2 -2 82 38 176 89 153
83 363 176 395 176 6 0 -29 -30 -78 -67 -115 -86 -269 -236 -349 -338 -35 -44
-72 -89 -84 -99 -12 -11 -21 -30 -21 -42 0 -14 -27 -56 -64 -103 -36 -44 -94
-119 -130 -168 -62 -84 -90 -112 -266 -264 -76 -66 -233 -189 -264 -206 -13
-7 -17 -20 -14 -57 l3 -48 80 57 c44 32 106 80 138 107 31 27 57 47 57 43 0
-3 -20 -35 -43 -70 -41 -60 -110 -124 -200 -185 l-37 -25 0 -144 c0 -79 2
-142 4 -140 2 2 122 182 267 399 146 217 286 424 312 460 27 36 72 97 100 136
29 39 71 93 94 120 24 27 62 74 86 104 40 52 134 126 145 116 5 -6 -97 -161
-240 -363 -51 -73 -140 -200 -198 -283 -58 -83 -125 -179 -150 -214 -25 -35
-88 -124 -140 -197 -52 -74 -98 -138 -102 -144 -5 -5 -46 -63 -93 -127 l-85
-117 0 -178 1 -178 20 37 c10 21 33 79 49 130 37 114 44 126 62 110 7 -6 53
-25 101 -42 48 -18 87 -34 87 -37 0 -3 -16 -23 -35 -45 -57 -67 -62 -96 -30
-186 29 -81 51 -107 97 -116 27 -5 28 -7 28 -74 l0 -68 -60 -50 c-39 -32 -60
-56 -60 -71 0 -23 -49 -68 -182 -168 l-78 -57 0 -199 0 -199 78 0 77 0 39 68
c21 37 82 133 135 214 l96 147 35 -5 c34 -5 37 -3 89 65 46 62 58 71 85 71 51
0 60 -12 53 -68 -13 -115 9 -125 258 -116 99 3 197 10 217 14 42 9 49 4 73
-53 l15 -36 -38 -26 c-20 -14 -84 -57 -142 -94 -58 -38 -132 -94 -165 -124
l-60 -56 705 0 705 -1 70 87 c107 133 374 430 545 606 278 286 434 506 616
867 137 274 183 460 184 747 0 183 -13 272 -60 414 -95 287 -249 501 -515 715
-194 156 -580 354 -789 405 -74 18 -296 34 -336 24z m262 -99 c87 -16 208 -53
223 -69 7 -7 4 -7 -10 -2 -35 14 -279 18 -371 6 -187 -25 -401 -94 -545 -177
-35 -21 -108 -61 -162 -90 -53 -29 -130 -74 -170 -100 -88 -57 -270 -146 -254
-124 15 20 127 126 187 175 25 21 97 73 161 115 334 225 658 316 941 266z
m-362 -314 c0 -4 -75 -50 -167 -101 -289 -162 -489 -284 -650 -398 -49 -34
-19 -2 65 69 239 203 442 334 622 404 83 32 130 42 130 26z m400 -66 c0 -2
-66 -41 -147 -86 -265 -148 -437 -274 -649 -473 -55 -51 -64 -56 -92 -51 -18
4 -32 9 -32 13 0 14 273 228 452 355 57 40 67 51 62 70 -5 20 6 28 109 79 138
69 209 95 260 96 20 1 37 -1 37 -3z m-306 -668 c-172 -179 -294 -336 -294
-377 0 -8 -18 -51 -39 -96 -48 -98 -71 -165 -71 -208 l0 -33 93 90 c111 110
246 223 427 360 151 114 230 170 230 161 0 -12 -63 -130 -125 -235 -74 -124
-180 -268 -286 -388 -60 -68 -85 -88 -129 -105 -30 -12 -53 -27 -50 -32 3 -6
42 -9 90 -8 111 2 232 37 375 108 l109 55 39 -25 c21 -14 40 -32 43 -40 7 -18
-148 -238 -191 -271 -39 -29 -51 -53 -30 -60 20 -8 150 57 246 122 44 31 84
53 87 49 13 -12 -114 -232 -195 -339 -52 -68 -261 -279 -294 -296 -16 -9 -18
-14 -8 -26 13 -16 83 -18 144 -4 22 5 41 7 43 6 1 -2 -64 -63 -146 -134 l-149
-131 -117 -16 c-161 -21 -186 -19 -290 16 -222 75 -428 207 -525 335 -28 37
-51 71 -51 76 0 5 -37 100 -81 211 -154 383 -174 463 -145 577 33 127 95 223
270 413 70 75 129 137 132 137 5 0 -37 -75 -63 -115 -33 -49 -1 -95 40 -58 26
23 290 142 396 178 84 28 75 31 163 -53 31 -30 61 -52 66 -48 16 10 -4 58 -45
105 -19 23 -34 43 -32 45 6 5 382 104 399 105 8 1 -8 -23 -36 -51z m-629 20
c14 -6 25 -15 25 -19 0 -15 -87 -81 -158 -120 -67 -37 -72 -38 -62 -17 10 18
158 168 167 168 1 0 14 -5 28 -12z m1145 -636 c-29 -53 -55 -100 -58 -103 -4
-4 -24 6 -44 21 l-38 28 76 62 c41 34 82 74 92 87 9 14 18 21 20 14 2 -6 -20
-55 -48 -109z m-1960 -873 c66 -40 69 -43 62 -73 -3 -17 -6 -75 -7 -128 l0
-97 -110 6 c-60 3 -112 7 -114 9 -2 2 -14 33 -27 69 -27 79 -23 93 36 150 23
22 50 55 61 73 12 17 23 32 25 32 3 0 36 -19 74 -41z m360 -70 c34 -65 97
-135 145 -159 17 -8 72 -39 122 -69 l92 -54 -65 -70 c-37 -38 -72 -84 -80
-102 -18 -43 -21 -42 -223 58 l-164 81 -21 -27 c-20 -25 -81 -55 -91 -45 -3 3
6 32 20 66 19 47 25 80 25 136 l0 74 36 7 c43 8 135 89 154 135 7 17 14 30 16
30 2 0 18 -27 34 -61z m345 -450 c8 -36 9 -35 -32 -44 -39 -8 -42 4 -12 46 26
37 36 37 44 -2z m-344 -33 c138 -66 224 -90 297 -83 45 5 53 3 48 -9 -3 -9 -6
-35 -6 -58 0 -37 -4 -45 -27 -56 -27 -12 -417 -35 -433 -25 -4 2 -3 29 2 59 6
32 6 88 1 140 -5 47 -6 86 -2 86 4 0 58 -24 120 -54z"/>
<path d="M1109 2419 c-11 -11 -19 -30 -17 -42 3 -19 10 -22 48 -23 28 0 67
-11 103 -28 l58 -28 -43 -28 c-67 -44 -148 -161 -148 -212 0 -36 27 -68 58
-68 29 0 59 18 116 67 34 30 49 52 26 38 -15 -9 -40 13 -40 35 0 23 34 53 56
48 10 -2 21 -14 24 -28 l6 -25 12 22 c8 14 18 20 32 16 16 -4 24 3 39 37 36
80 5 116 -163 194 -110 51 -137 55 -167 25z"/>
<path d="M1400 2371 c0 -14 67 -47 77 -38 10 11 -18 35 -49 42 -18 5 -28 3
-28 -4z"/>
<path d="M778 2164 c-32 -17 -37 -44 -8 -44 29 0 90 32 90 47 0 18 -48 16 -82
-3z"/>
<path d="M839 2071 c-22 -18 -23 -20 -6 -27 21 -8 87 20 87 36 0 17 -57 11
-81 -9z"/>
<path d="M931 2011 c-25 -19 -22 -41 7 -41 25 0 84 39 77 50 -10 16 -58 11
-84 -9z"/>
<path d="M1277 1844 c-40 -27 -44 -47 -11 -52 26 -4 74 34 74 59 0 26 -18 24
-63 -7z"/>
<path d="M2040 1820 c0 -5 13 -24 30 -42 26 -29 29 -31 30 -12 0 11 -10 30
-23 42 -25 24 -37 28 -37 12z"/>
<path d="M1854 1786 c-33 -25 -7 -50 55 -54 49 -3 54 -6 86 -50 19 -26 35 -49
35 -52 0 -4 -16 -12 -36 -19 -76 -27 -184 -168 -184 -240 0 -35 37 -81 65 -81
21 0 113 61 145 96 14 15 19 24 12 20 -16 -10 -42 11 -42 34 0 23 34 53 56 48
10 -2 21 -14 24 -28 7 -24 7 -24 26 13 l18 38 17 -23 c11 -14 16 -33 12 -48
-7 -39 19 -57 52 -36 30 20 41 56 25 88 -26 50 -202 288 -220 298 -28 15 -123
12 -146 -4z"/>
<path d="M1127 1353 c-40 -39 104 -151 236 -184 41 -10 51 -9 63 3 25 25 5 46
-64 68 -83 27 -133 52 -176 90 -34 30 -47 35 -59 23z"/>
<path d="M1725 1186 c-16 -11 -17 -17 -8 -27 10 -9 20 -9 50 2 21 8 38 19 38
24 0 16 -59 17 -80 1z"/>
<path d="M1833 1118 c-40 -10 -45 -38 -7 -38 28 0 64 16 64 29 0 15 -23 18
-57 9z"/>
<path d="M1928 1039 c-58 -22 -43 -69 17 -49 40 13 56 37 34 51 -16 10 -16 10
-51 -2z"/>
</g>
</svg>
